REM DIRINDEX 1\2\6,1\2\7,1\2\8,1\2\9,1\3\10,1\3\11,1\4\12,1\4\13,1\4\14,1\5\15,1\5\16,1\5\17
REM DIRNAME folder01,folder02,folder03,folder04,folder05,folder06,folder07,folder08,folder09,folder10,folder11,folder12,folder13,folder14,folder15,folder16,folder17
TITLE ""
FILE "1400_2_sec08_0701_0717.mp3" MP3
  TRACK 01 AUDIO
    TITLE "0:"
    INDEX 01 00:00:00
  TRACK 02 AUDIO
    TITLE "12:cjc029_2996"
    INDEX 01 00:03:27
  TRACK 03 AUDIO
    TITLE "0:"
    INDEX 01 00:05:14
  TRACK 04 AUDIO
    TITLE "12:cjc029_2997"
    INDEX 01 00:05:61
  TRACK 05 AUDIO
    TITLE "0:"
    INDEX 01 00:07:09
  TRACK 06 AUDIO
    TITLE "13:cjc029_2998"
    INDEX 01 00:08:11
  TRACK 07 AUDIO
    TITLE "0:"
    INDEX 01 00:09:28
  TRACK 08 AUDIO
    TITLE "14:cjc029_2999"
    INDEX 01 00:09:36
  TRACK 09 AUDIO
    TITLE "0:"
    INDEX 01 00:12:26
  TRACK 10 AUDIO
    TITLE "13:cjc029_3000"
    INDEX 01 00:13:08
  TRACK 11 AUDIO
    TITLE "0:"
    INDEX 01 00:14:31
  TRACK 12 AUDIO
    TITLE "14:cjc029_3001"
    INDEX 01 00:14:35
  TRACK 13 AUDIO
    TITLE "0:"
    INDEX 01 00:15:62
  TRACK 14 AUDIO
    TITLE "13:cjc029_3002"
    INDEX 01 00:16:44
  TRACK 15 AUDIO
    TITLE "0:"
    INDEX 01 00:17:65
  TRACK 16 AUDIO
    TITLE "14:cjc029_3003"
    INDEX 01 00:17:70
  TRACK 17 AUDIO
    TITLE "0:"
    INDEX 01 00:22:11
  TRACK 18 AUDIO
    TITLE "13:cjc029_3004"
    INDEX 01 00:22:66
  TRACK 19 AUDIO
    TITLE "0:"
    INDEX 01 00:24:14
  TRACK 20 AUDIO
    TITLE "14:cjc029_3005"
    INDEX 01 00:24:18
  TRACK 21 AUDIO
    TITLE "0:"
    INDEX 01 00:27:26
  TRACK 22 AUDIO
    TITLE "13:cjc029_3006"
    INDEX 01 00:28:06
  TRACK 23 AUDIO
    TITLE "0:"
    INDEX 01 00:29:25
  TRACK 24 AUDIO
    TITLE "14:cjc029_3007"
    INDEX 01 00:29:31
  TRACK 25 AUDIO
    TITLE "0:"
    INDEX 01 00:31:61
  TRACK 26 AUDIO
    TITLE "13:cjc029_3008"
    INDEX 01 00:32:45
  TRACK 27 AUDIO
    TITLE "0:"
    INDEX 01 00:33:62
  TRACK 28 AUDIO
    TITLE "14:cjc029_3009"
    INDEX 01 00:33:68
  TRACK 29 AUDIO
    TITLE "0:"
    INDEX 01 00:36:44
  TRACK 30 AUDIO
    TITLE "13:cjc029_3010"
    INDEX 01 00:37:24
  TRACK 31 AUDIO
    TITLE "0:"
    INDEX 01 00:38:53
  TRACK 32 AUDIO
    TITLE "14:cjc029_3011"
    INDEX 01 00:38:59
  TRACK 33 AUDIO
    TITLE "0:"
    INDEX 01 00:41:38
  TRACK 34 AUDIO
    TITLE "13:cjc029_3012"
    INDEX 01 00:42:23
  TRACK 35 AUDIO
    TITLE "0:"
    INDEX 01 00:43:46
  TRACK 36 AUDIO
    TITLE "14:cjc029_3013"
    INDEX 01 00:43:50
  TRACK 37 AUDIO
    TITLE "0:"
    INDEX 01 00:46:23
  TRACK 38 AUDIO
    TITLE "13:cjc029_3014"
    INDEX 01 00:47:05
  TRACK 39 AUDIO
    TITLE "0:"
    INDEX 01 00:48:26
  TRACK 40 AUDIO
    TITLE "14:cjc029_3015"
    INDEX 01 00:48:28
  TRACK 41 AUDIO
    TITLE "0:"
    INDEX 01 00:50:70
  TRACK 42 AUDIO
    TITLE "13:cjc029_3016"
    INDEX 01 00:51:54
  TRACK 43 AUDIO
    TITLE "0:"
    INDEX 01 00:53:02
  TRACK 44 AUDIO
    TITLE "14:cjc029_3017"
    INDEX 01 00:53:06
  TRACK 45 AUDIO
    TITLE "0:"
    INDEX 01 00:55:26
  TRACK 46 AUDIO
    TITLE "13:cjc029_3018"
    INDEX 01 00:56:10
  TRACK 47 AUDIO
    TITLE "0:"
    INDEX 01 00:57:25
  TRACK 48 AUDIO
    TITLE "14:cjc029_3019"
    INDEX 01 00:57:33
  TRACK 49 AUDIO
    TITLE "0:"
    INDEX 01 00:58:38
  TRACK 50 AUDIO
    TITLE "13:cjc029_3020"
    INDEX 01 00:59:20
  TRACK 51 AUDIO
    TITLE "0:"
    INDEX 01 01:00:17
  TRACK 52 AUDIO
    TITLE "14:cjc029_3021"
    INDEX 01 01:00:19
  TRACK 53 AUDIO
    TITLE "0:"
    INDEX 01 01:01:07
  TRACK 54 AUDIO
    TITLE "13:cjc029_3022"
    INDEX 01 01:01:66
  TRACK 55 AUDIO
    TITLE "0:"
    INDEX 01 01:03:26
  TRACK 56 AUDIO
    TITLE "14:cjc029_3023"
    INDEX 01 01:03:29
  TRACK 57 AUDIO
    TITLE "0:"
    INDEX 01 01:07:43
  TRACK 58 AUDIO
    TITLE "13:cjc029_3024"
    INDEX 01 01:08:27
  TRACK 59 AUDIO
    TITLE "0:"
    INDEX 01 01:09:38
  TRACK 60 AUDIO
    TITLE "14:cjc029_3025"
    INDEX 01 01:09:40
  TRACK 61 AUDIO
    TITLE "0:"
    INDEX 01 01:11:41
  TRACK 62 AUDIO
    TITLE "13:cjc029_3026"
    INDEX 01 01:12:23
  TRACK 63 AUDIO
    TITLE "0:"
    INDEX 01 01:13:59
  TRACK 64 AUDIO
    TITLE "14:cjc029_3027"
    INDEX 01 01:13:63
  TRACK 65 AUDIO
    TITLE "0:"
    INDEX 01 01:14:72
  TRACK 66 AUDIO
    TITLE "13:cjc029_3028"
    INDEX 01 01:15:52
  TRACK 67 AUDIO
    TITLE "0:"
    INDEX 01 01:16:71
  TRACK 68 AUDIO
    TITLE "14:cjc029_3029"
    INDEX 01 01:16:73
  TRACK 69 AUDIO
    TITLE "0:"
    INDEX 01 01:18:19
  TRACK 70 AUDIO
    TITLE "13:cjc029_3030"
    INDEX 01 01:19:03
  TRACK 71 AUDIO
    TITLE "0:"
    INDEX 01 01:20:16
  TRACK 72 AUDIO
    TITLE "14:cjc029_3031"
    INDEX 01 01:20:24
  TRACK 73 AUDIO
    TITLE "0:"
    INDEX 01 01:21:35
